<svg id="Сгруппировать_5351" data-name="Сгруппировать 5351" xmlns="http://www.w3.org/2000/svg" viewBox="0 0 55.657 55.657">
  <g id="Сгруппировать_5336" data-name="Сгруппировать 5336">
    <g id="zoom-in" transform="translate(0)">
      <g id="Сгруппировать_5334" data-name="Сгруппировать 5334" transform="translate(0)">
        <g id="Сгруппировать_5333" data-name="Сгруппировать 5333" transform="translate(0 0)">
          <path id="Контур_5237" data-name="Контур 5237" d="M.637,51.944l15.7-15.7a22.181,22.181,0,1,1,3.075,3.075l-15.7,15.7A2.175,2.175,0,0,1,.637,51.944ZM20.877,34.78a17.832,17.832,0,1,0,0-25.218A17.852,17.852,0,0,0,20.877,34.78Z" transform="translate(0 0)" fill="#4c4c4c"/>
        </g>
      </g>
    </g>
  </g>
  <g id="Сгруппировать_5337" data-name="Сгруппировать 5337" transform="translate(23.35 12)">
    <path id="Контур_5062" data-name="Контур 5062" d="M10363.762,3174a1.037,1.037,0,0,0,0,2h18.782a1.037,1.037,0,0,0,0-2Z" transform="translate(-10362.999 -3165)" fill="#ff8055"/>
    <path id="Контур_5063" data-name="Контур 5063" d="M11153,2404.544a1.037,1.037,0,0,0,2,0v-18.795c0-.416-.454-.749-1-.749s-1,.333-1,.749Z" transform="translate(-11143.694 -2385)" fill="#ff8055"/>
  </g>
</svg>
