<svg xmlns="http://www.w3.org/2000/svg" xmlns:xlink="http://www.w3.org/1999/xlink" viewBox="0 0 56 56">
  <defs>
    <style>
      .cls-1 {
        fill: none;
      }

      .cls-2 {
        clip-path: url(#clip-path);
      }

      .cls-3 {
        fill: #0f2c52;
      }
    </style>
    <clipPath id="clip-path">
      <rect class="cls-1" width="56" height="56"/>
    </clipPath>
  </defs>
  <g id="icon_values" class="cls-2">
    <rect id="icon_mask" class="cls-1" width="56" height="56"/>
    <g id="icon" transform="translate(-387 -700)">
      <g id="Group_2315" data-name="Group 2315">
        <path id="Path_1565" data-name="Path 1565" class="cls-3" d="M402.8,714.3h-.1a4.417,4.417,0,0,1-3.1-2.3,2.978,2.978,0,0,1,.2-3,3.26,3.26,0,0,1,3.9-1.6,3.75,3.75,0,0,1,2.8,3.6.789.789,0,0,1-.8.8.736.736,0,0,1-.8-.8,2.189,2.189,0,0,0-1.7-2.2,1.951,1.951,0,0,0-2.2.9,1.552,1.552,0,0,0-.1,1.6,2.547,2.547,0,0,0,2,1.4.73.73,0,0,1,.6.9A.679.679,0,0,1,402.8,714.3Z"/>
      </g>
      <g id="Group_2316" data-name="Group 2316">
        <path id="Path_1566" data-name="Path 1566" class="cls-3" d="M403,719.9a2.769,2.769,0,0,1-.9-.1,3.75,3.75,0,0,1-2.8-3.6.789.789,0,0,1,.8-.8.736.736,0,0,1,.8.8,2.189,2.189,0,0,0,1.7,2.2,1.951,1.951,0,0,0,2.2-.9,1.552,1.552,0,0,0,.1-1.6,2.705,2.705,0,0,0-2-1.4.752.752,0,1,1,.1-1.5,4.347,4.347,0,0,1,3.2,2.2,3.4,3.4,0,0,1-.1,3.1A4.139,4.139,0,0,1,403,719.9Z"/>
      </g>
      <g id="Group_2317" data-name="Group 2317">
        <path id="Path_1567" data-name="Path 1567" class="cls-3" d="M402.8,726a12.4,12.4,0,1,1,12.4-12.4A12.462,12.462,0,0,1,402.8,726Zm0-23.3a10.9,10.9,0,1,0,10.9,10.9A10.926,10.926,0,0,0,402.8,702.7Zm0,18.5a.789.789,0,0,1-.8-.8V719a.789.789,0,0,1,.8-.8.736.736,0,0,1,.8.8v1.4A.789.789,0,0,1,402.8,721.2Zm0-12.4a.789.789,0,0,1-.8-.8v-1.3a.789.789,0,0,1,.8-.8.736.736,0,0,1,.8.8V708A.789.789,0,0,1,402.8,708.8Z"/>
      </g>
      <g id="Group_2318" data-name="Group 2318">
        <path id="Path_1568" data-name="Path 1568" class="cls-3" d="M435.4,738.3h0a2.415,2.415,0,0,1-1.8-1.3,1.711,1.711,0,0,1,.1-1.7,1.829,1.829,0,0,1,2.2-.9,2.252,2.252,0,0,1,1.6,2.1.5.5,0,0,1-1,0,1.088,1.088,0,0,0-.9-1.1c-.2-.1-.7-.1-1.1.5a.783.783,0,0,0-.1.8,1.353,1.353,0,0,0,1,.7.441.441,0,0,1,.4.6C435.9,738.1,435.7,738.3,435.4,738.3Z"/>
      </g>
      <g id="Group_2319" data-name="Group 2319">
        <path id="Path_1569" data-name="Path 1569" class="cls-3" d="M435.5,741.3a.9.9,0,0,1-.5-.1,2.252,2.252,0,0,1-1.6-2.1.5.5,0,0,1,1,0,1.088,1.088,0,0,0,.9,1.1c.2.1.7.1,1.1-.5a.608.608,0,0,0,0-.8,1.353,1.353,0,0,0-1-.7.51.51,0,0,1,.2-1,2.514,2.514,0,0,1,1.8,1.3,1.681,1.681,0,0,1-.1,1.8A2.12,2.12,0,0,1,435.5,741.3Z"/>
      </g>
      <g id="Group_2320" data-name="Group 2320">
        <path id="Path_1570" data-name="Path 1570" class="cls-3" d="M435.5,744.7a6.9,6.9,0,1,1,6.9-6.9A6.914,6.914,0,0,1,435.5,744.7Zm0-12.8a5.9,5.9,0,0,0,0,11.8,5.848,5.848,0,0,0,5.9-5.9A6.044,6.044,0,0,0,435.5,731.9Zm0,10.2a.472.472,0,0,1-.5-.5v-.7a.5.5,0,0,1,1,0v.7A.642.642,0,0,1,435.5,742.1Zm0-6.8a.472.472,0,0,1-.5-.5V734a.5.5,0,0,1,1,0v.7A.648.648,0,0,1,435.5,735.3Z"/>
      </g>
      <g id="Group_2321" data-name="Group 2321">
        <path id="Path_1571" data-name="Path 1571" class="cls-3" d="M423,753.9H406a1.012,1.012,0,0,1-.7-.4,1.1,1.1,0,0,1,0-.8l8.5-13a.854.854,0,0,1,1.3,0l8.5,13a.6.6,0,0,1,0,.8A.548.548,0,0,1,423,753.9Zm-15.6-1.5h14.3l-7.1-10.8Z"/>
      </g>
      <g id="Group_2322" data-name="Group 2322">
        <path id="Path_1572" data-name="Path 1572" class="cls-3" d="M441.1,753.9a.6.6,0,0,1-.4-.1L387.4,723a.738.738,0,1,1,.7-1.3l53.3,30.8a.714.714,0,0,1,.3,1A.548.548,0,0,1,441.1,753.9Z"/>
      </g>
    </g>
  </g>
</svg>
