<svg xmlns="http://www.w3.org/2000/svg"  viewBox="0 0 144 42" width="144" height="42">
  <g id="Group_5256" data-name="Group 5256" transform="translate(-498 -1859)">
    <rect id="Rectangle_7308" data-name="Rectangle 7308" width="144" height="42" transform="translate(498 1859)" fill="red" opacity="0"/>
    <g id="Logo" transform="translate(498 1865.546)">
      <g id="Group_5216" data-name="Group 5216" transform="translate(0 -0.015)">
        <path id="Path_4050" data-name="Path 4050" d="M458.525,6.5l-.582.047a4.153,4.153,0,0,0-2.861,1.4,4.166,4.166,0,0,0-.837,1.419,4.439,4.439,0,0,0-.256,1.675l.93,20.913a3.352,3.352,0,0,0,.372,1.4,2.958,2.958,0,0,0,.884,1.047,3.453,3.453,0,0,0,1.256.582,3.856,3.856,0,0,0,1.466.047l4.42-.768,5.816-1,4.257-.744-.488-.07c-.163-.023-.326-.07-.465-.093-.163-.047-.3-.093-.442-.14s-.279-.093-.442-.163a8.788,8.788,0,0,1-.814-.4,5.128,5.128,0,0,1-.744-.489c-.233-.186-.442-.372-.651-.558a4.871,4.871,0,0,1-.558-.651c-.256-.349-.512-.744-.791-1.186s-.558-.954-.837-1.512-.582-1.186-.907-1.884c-.3-.7-.628-1.442-.977-2.256Z" transform="translate(-348.377 -4.984)" fill="#00adee"/>
        <path id="Path_4051" data-name="Path 4051" d="M518.42,2.2l-13.12.651,5.3,14.1c.233.628.442,1.186.651,1.675s.372.93.535,1.326c.163.372.3.7.442.977a6.2,6.2,0,0,0,.349.628,5.246,5.246,0,0,0,.535.675,3.353,3.353,0,0,0,.628.512c.233.14.465.256.7.372a4.39,4.39,0,0,0,.791.209c.093.023.209.023.3.047.093,0,.209.023.3.023a1.535,1.535,0,0,0,.326-.023,1.572,1.572,0,0,0,.326-.047c.186-.023.4-.07.6-.116a3.321,3.321,0,0,0,.628-.209c.209-.093.442-.186.651-.279l.7-.349a11.007,11.007,0,0,0,1.024-.651,8.158,8.158,0,0,0,.837-.675,4.682,4.682,0,0,0,.651-.721,5.345,5.345,0,0,0,.489-.768,3.622,3.622,0,0,0,.326-.768,4.7,4.7,0,0,0,.209-.768c.047-.256.07-.512.093-.768a4.261,4.261,0,0,0-.046-.768c-.047-.256-.093-.535-.163-.861s-.163-.7-.256-1.093c-.116-.4-.233-.837-.372-1.326s-.3-1-.488-1.559Z" transform="translate(-387.755 -1.685)" fill="#e93a26"/>
        <path id="Path_4052" data-name="Path 4052" d="M570.112-.012,565.693.2l1.791,6.165c.256.861.465,1.652.651,2.373s.349,1.372.489,1.977.233,1.14.326,1.628a10.126,10.126,0,0,1,.163,1.279c.023.372.047.721.047,1.093a7.915,7.915,0,0,1-.07,1.047c-.047.349-.093.675-.163,1.024a7.693,7.693,0,0,1-.279.977,6.86,6.86,0,0,1-.4.954,9.242,9.242,0,0,1-.489.954,10.531,10.531,0,0,1-.6.93c-.233.3-.465.6-.721.907a10.291,10.291,0,0,1-.861.907,12.719,12.719,0,0,1-1.024.884c-.372.3-.768.582-1.21.884s-.907.582-1.4.884c-.279.163-.558.326-.814.465s-.535.279-.768.419c-.256.14-.512.256-.744.372s-.488.233-.721.326l9.956-1.721a3.3,3.3,0,0,0,1.117-.442,3.947,3.947,0,0,0,.93-.837,4.13,4.13,0,0,0,.651-1.117,4.672,4.672,0,0,0,.3-1.279L572.881,3.5a4.371,4.371,0,0,0-.14-1.372,3.594,3.594,0,0,0-.558-1.117,2.781,2.781,0,0,0-.907-.744,2.012,2.012,0,0,0-1.163-.279" transform="translate(-428.887 0.015)" fill="#ffc627"/>
        <path id="Path_4053" data-name="Path 4053" d="M20.494,17.344a13.934,13.934,0,0,0-3.117-1.372,12.111,12.111,0,0,0-3.4-.489A6.974,6.974,0,0,0,8.63,17.6a8.075,8.075,0,0,0-2,5.792,8.44,8.44,0,0,0,1.931,5.862A6.946,6.946,0,0,0,14,31.394a11.187,11.187,0,0,0,3.629-.582,13.456,13.456,0,0,0,3.187-1.535l1.372,5.816a14.883,14.883,0,0,1-3.862,1.349,21.013,21.013,0,0,1-4.606.512,16.974,16.974,0,0,1-5.606-.884,11.921,11.921,0,0,1-4.327-2.582A12.023,12.023,0,0,1,1,29.3a15.3,15.3,0,0,1-1-5.769,15.492,15.492,0,0,1,.977-5.653,11.772,11.772,0,0,1,7.188-7.025A16.67,16.67,0,0,1,13.934,9.9a19.721,19.721,0,0,1,4.559.535,19.029,19.029,0,0,1,3.978,1.4Z" transform="translate(0 -7.594)" fill="#00adee"/>
        <path id="Path_4054" data-name="Path 4054" d="M115.36,17.594l-3.42,10.119h6.723Zm13.167,20.727h-6.537l-1.908-5.49H110.5l-1.861,5.49H102.1L111.265,12.5h8.258Z" transform="translate(-78.349 -9.589)" fill="#00adee"/>
        <path id="Path_4055" data-name="Path 4055" d="M231.426,31.611a5.7,5.7,0,0,0,2.838-.628,2,2,0,0,0,1.093-1.814,1.777,1.777,0,0,0-.349-1.117,3.252,3.252,0,0,0-1-.814,8.722,8.722,0,0,0-1.652-.651c-.651-.209-1.419-.442-2.28-.675a25.771,25.771,0,0,1-2.861-.954,12.888,12.888,0,0,1-2.675-1.466,6.787,6.787,0,0,1-1.977-2.233,6.456,6.456,0,0,1-.768-3.28,7.287,7.287,0,0,1,2.559-5.792c1.7-1.466,4.164-2.187,7.351-2.187a21.158,21.158,0,0,1,5.42.628,17.843,17.843,0,0,1,4.234,1.652L240.08,17.7a20.445,20.445,0,0,0-4.164-1.652,15.478,15.478,0,0,0-4.164-.628c-2.256,0-3.4.721-3.4,2.187a1.609,1.609,0,0,0,.419,1.093,3.228,3.228,0,0,0,1.163.814,10.614,10.614,0,0,0,1.745.651c.651.209,1.372.419,2.14.628a25.58,25.58,0,0,1,2.931,1,11.8,11.8,0,0,1,2.605,1.466,6.76,6.76,0,0,1,1.861,2.187,6.622,6.622,0,0,1,.7,3.164,8.138,8.138,0,0,1-.7,3.4,7.285,7.285,0,0,1-2.047,2.652,9.693,9.693,0,0,1-3.3,1.745,14.792,14.792,0,0,1-4.513.628,22.375,22.375,0,0,1-5.513-.651,17.546,17.546,0,0,1-4.443-1.7l1.233-5.443a23.945,23.945,0,0,0,4.187,1.721,15.974,15.974,0,0,0,4.606.651" transform="translate(-169.897 -7.67)" fill="#00adee"/>
        <path id="Path_4056" data-name="Path 4056" d="M344.635,38.4V28.163H334.283V38.4H327.7V12.6h6.583V22.626h10.352V12.6h6.56V38.4Z" transform="translate(-251.469 -9.665)" fill="#00adee"/>
      </g>
    </g>
  </g>
</svg>
