<svg xmlns="http://www.w3.org/2000/svg" xmlns:xlink="http://www.w3.org/1999/xlink"  viewBox="0 0 248.5 42" width='248' height='42'>
  <defs>
    <clipPath id="clip-path">
      <rect id="Rectangle_7359" data-name="Rectangle 7359" width="248.5" height="42" transform="translate(570 356)" fill="none"/>
    </clipPath>
    <clipPath id="clip-path-2">
      <rect id="Rectangle_7358" data-name="Rectangle 7358" width="248.497" height="41.886" fill="none"/>
    </clipPath>
  </defs>
  <g id="Mask_Group_7" data-name="Mask Group 7" transform="translate(-570 -356)" clip-path="url(#clip-path)">
    <g id="Group_5299" data-name="Group 5299" transform="translate(570 356)">
      <rect id="Rectangle_7357" data-name="Rectangle 7357" width="18.102" height="32.53" transform="translate(24.423 4.816)" fill="#ff5f00"/>
      <g id="Group_5298" data-name="Group 5298">
        <g id="Group_5297" data-name="Group 5297" clip-path="url(#clip-path-2)">
          <path id="Path_4125" data-name="Path 4125" d="M25.573,21.372a20.652,20.652,0,0,1,7.9-16.265,20.688,20.688,0,1,0,0,32.53,20.652,20.652,0,0,1-7.9-16.265" transform="translate(0 -0.29)" fill="#eb001b"/>
          <path id="Path_4126" data-name="Path 4126" d="M91.721,21.372A20.687,20.687,0,0,1,58.249,37.637a20.691,20.691,0,0,0,0-32.53A20.688,20.688,0,0,1,91.721,21.372" transform="translate(-24.775 -0.29)" fill="#f79e1b"/>
          <path id="Path_4127" data-name="Path 4127" d="M112.752,58.4v-.666h.268V57.6h-.684v.136h.268V58.4Zm1.328,0v-.8h-.21l-.241.552-.241-.552h-.21v.8h.148v-.606l.226.522h.153l.226-.524V58.4Z" transform="translate(-47.779 -24.496)" fill="#f79e1b"/>
          <path id="Path_4128" data-name="Path 4128" d="M152.593,41.886h-.766V0h.766V41.886Z" transform="translate(-64.575)"/>
          <path id="Path_4129" data-name="Path 4129" d="M188.465,40.21h-2.15V15.538h2.15ZM204.15,15.538a16.749,16.749,0,0,1,5.551.863,11.818,11.818,0,0,1,4.195,2.467,10.823,10.823,0,0,1,2.66,3.886,14.493,14.493,0,0,1,0,10.24,10.816,10.816,0,0,1-2.66,3.886,11.81,11.81,0,0,1-4.195,2.467,16.734,16.734,0,0,1-5.551.864h-9.006V15.538Zm-6.856,2.044V38.166h6.856a14.21,14.21,0,0,0,4.758-.731,9.653,9.653,0,0,0,3.472-2.071,8.637,8.637,0,0,0,2.133-3.243,12.847,12.847,0,0,0,0-8.494,8.715,8.715,0,0,0-2.133-3.251,9.479,9.479,0,0,0-3.472-2.071,14.355,14.355,0,0,0-4.758-.722Zm45.186-2.326a13.216,13.216,0,0,1,3.067.352,12.4,12.4,0,0,1,2.775,1.013,11.063,11.063,0,0,1,2.344,1.6,9.756,9.756,0,0,1,1.788,2.115l-1.8,1.2a8.682,8.682,0,0,0-1.507-1.745,9.449,9.449,0,0,0-1.921-1.322,9.878,9.878,0,0,0-2.255-.837,10.662,10.662,0,0,0-2.494-.291,10.947,10.947,0,0,0-4.1.758,9.759,9.759,0,0,0-3.3,2.15,10.059,10.059,0,0,0-2.2,3.33,11.935,11.935,0,0,0,0,8.6,10.052,10.052,0,0,0,2.2,3.331,9.766,9.766,0,0,0,3.3,2.15,11.313,11.313,0,0,0,6.582.476,9.587,9.587,0,0,0,2.247-.828,9.449,9.449,0,0,0,1.921-1.322,8.512,8.512,0,0,0,1.507-1.763L252.4,35.5a10.462,10.462,0,0,1-1.823,2.079,11.4,11.4,0,0,1-2.326,1.569,12.082,12.082,0,0,1-2.741,1,13.781,13.781,0,0,1-8.046-.59,12.073,12.073,0,0,1-4.009-2.6,11.928,11.928,0,0,1-2.653-3.983,14.009,14.009,0,0,1,0-10.195,11.9,11.9,0,0,1,2.653-3.992,12.081,12.081,0,0,1,4.009-2.6A13.285,13.285,0,0,1,242.48,15.256ZM259.064,26.5a6.337,6.337,0,0,1,1.155-1.41,6.163,6.163,0,0,1,1.436-.979,7.2,7.2,0,0,1,1.621-.564,7.9,7.9,0,0,1,1.692-.185,8.28,8.28,0,0,1,2.837.467,6.4,6.4,0,0,1,2.212,1.33,5.826,5.826,0,0,1,1.427,2.106,7.355,7.355,0,0,1,.5,2.776V40.21h-2.009V30.658a6.806,6.806,0,0,0-.352-2.256,4.506,4.506,0,0,0-1.04-1.7,4.569,4.569,0,0,0-1.674-1.067,6.415,6.415,0,0,0-2.256-.37,5.92,5.92,0,0,0-2.176.4,5.209,5.209,0,0,0-1.762,1.128,5.309,5.309,0,0,0-1.181,1.745,5.617,5.617,0,0,0-.432,2.229V40.21h-2.009V14.832h2.009ZM283.9,23.362a7.547,7.547,0,0,1,3.075.626,7.293,7.293,0,0,1,2.449,1.745,8.28,8.28,0,0,1,1.63,2.679,9.7,9.7,0,0,1,.617,3.41c0,.153,0,.3-.009.432s-.015.268-.026.4h-13.9a7.118,7.118,0,0,0,.643,2.573,6.075,6.075,0,0,0,1.4,1.912,5.9,5.9,0,0,0,1.982,1.19,6.96,6.96,0,0,0,2.388.405,7.351,7.351,0,0,0,3.119-.634,8.73,8.73,0,0,0,2.485-1.727l1.075,1.375a9.831,9.831,0,0,1-1.613,1.322,8.59,8.59,0,0,1-1.675.846,8.3,8.3,0,0,1-1.736.441,12.894,12.894,0,0,1-1.78.124,8.788,8.788,0,0,1-3.349-.626,7.788,7.788,0,0,1-2.643-1.754,7.928,7.928,0,0,1-1.728-2.7,9.418,9.418,0,0,1-.617-3.472,9.267,9.267,0,0,1,.626-3.445,8.2,8.2,0,0,1,1.727-2.714A7.806,7.806,0,0,1,280.644,24,8.293,8.293,0,0,1,283.9,23.362Zm-.035,1.78a6.041,6.041,0,0,0-2.318.432,5.816,5.816,0,0,0-1.841,1.2,6.231,6.231,0,0,0-1.3,1.824,7.24,7.24,0,0,0-.643,2.326h11.861a7.168,7.168,0,0,0-.582-2.353,5.926,5.926,0,0,0-1.242-1.824A5.526,5.526,0,0,0,283.86,25.142Zm19.367-1.78a8.8,8.8,0,0,1,3.428.661,7.336,7.336,0,0,1,2.687,1.913l-1.3,1.357a7.219,7.219,0,0,0-2.176-1.507,6.536,6.536,0,0,0-2.688-.538,6.356,6.356,0,0,0-2.529.5,6.209,6.209,0,0,0-2.036,1.392,6.359,6.359,0,0,0-1.349,2.115,7.6,7.6,0,0,0,0,5.34,6.176,6.176,0,0,0,3.384,3.489,6.346,6.346,0,0,0,2.529.5,6.5,6.5,0,0,0,2.723-.564,7.555,7.555,0,0,0,2.194-1.5l1.251,1.375a7.507,7.507,0,0,1-2.7,1.913,9.255,9.255,0,0,1-6.847.009,8,8,0,0,1-4.441-4.5,9.539,9.539,0,0,1,0-6.794,7.982,7.982,0,0,1,4.441-4.511A8.8,8.8,0,0,1,303.228,23.362Zm12.16,7.261h2.7l6.979-7H327.6l-7.895,7.825,8.036,8.759h-2.555l-7.1-7.772h-2.7V40.21h-2.009V14.832h2.009Z" transform="translate(-79.244 -6.308)"/>
        </g>
      </g>
    </g>
  </g>
</svg>
