<svg xmlns="http://www.w3.org/2000/svg" xmlns:xlink="http://www.w3.org/1999/xlink" viewBox="0 0 42 42" width="42" height="42">
  <defs>
    <clipPath id="clip-path">
      <rect id="Rectangle_7353" data-name="Rectangle 7353" width="42" height="42" transform="translate(389 356)" fill="none"/>
    </clipPath>
    <clipPath id="clip-path-2">
      <rect id="Rectangle_7352" data-name="Rectangle 7352" width="42" height="42" fill="none"/>
    </clipPath>
  </defs>
  <g id="Group_5" data-name="Group 5" transform="translate(-389 -356)" clip-path="url(#clip-path)">
    <g id="Group_5293" data-name="Group 5293" transform="translate(389 355.717)">
      <rect id="Rectangle_7350" data-name="Rectangle 7350" width="42" height="42" transform="translate(0 0.283)" fill="#fff"/>
      <rect id="Rectangle_7351" data-name="Rectangle 7351" width="42" height="21" transform="translate(0 21.283)" fill="#1434cb"/>
      <g id="Group_5292" data-name="Group 5292" transform="translate(0 0.283)">
        <g id="Group_5291" data-name="Group 5291" clip-path="url(#clip-path-2)">
          <path id="Path_4115" data-name="Path 4115" d="M34.12,24.588l-3.965,9.479h-2.6L25.6,26.488a1.047,1.047,0,0,0-.587-.845,10.066,10.066,0,0,0-2.417-.8l.047-.282h4.176a1.128,1.128,0,0,1,1.126.962l1.032,5.49,2.557-6.452H34.12ZM44.28,30.97c0-2.511-3.449-2.651-3.426-3.754,0-.328.328-.7,1.032-.8a4.749,4.749,0,0,1,2.417.422l.422-2.018a6.7,6.7,0,0,0-2.3-.422c-2.417,0-4.129,1.29-4.153,3.144-.023,1.361,1.22,2.135,2.135,2.581.962.469,1.267.774,1.267,1.173,0,.633-.774.915-1.478.939a4.816,4.816,0,0,1-2.511-.61l-.446,2.088a7.323,7.323,0,0,0,2.722.493c2.628,0,4.317-1.267,4.317-3.238m6.405,3.1h2.276L50.99,24.588H48.9a1.153,1.153,0,0,0-1.056.7l-3.684,8.8h2.581l.516-1.408H50.38ZM47.94,30.712l1.29-3.566.751,3.566ZM37.616,24.588,35.6,34.067H33.135l2.018-9.479Z" transform="translate(-17.297 -18.908)" fill="#1434cb"/>
          <path id="Path_4116" data-name="Path 4116" d="M37.523,125.208a1.364,1.364,0,0,1,.211-.774,1.231,1.231,0,0,1,.61-.469,2.048,2.048,0,0,1,.868-.164,2.794,2.794,0,0,1,.845.094,2.56,2.56,0,0,1,.493.211l.047.8h-.023a1.465,1.465,0,0,0-.375-.235,3.035,3.035,0,0,0-.493-.164,1.954,1.954,0,0,0-.516-.07,1.606,1.606,0,0,0-.633.117.46.46,0,0,0-.235.446.6.6,0,0,0,.117.375.836.836,0,0,0,.352.235,5.859,5.859,0,0,0,.587.188c.211.07.422.117.61.188a2.4,2.4,0,0,1,.493.235.917.917,0,0,1,.328.4,1.569,1.569,0,0,1,.117.61,1.4,1.4,0,0,1-.469,1.126,2.063,2.063,0,0,1-1.337.375,3.849,3.849,0,0,1-.868-.117,2.445,2.445,0,0,1-.7-.305l-.047-.8h.023a2.6,2.6,0,0,0,.751.422,2.947,2.947,0,0,0,.892.141c.633,0,.939-.211.939-.657a.6.6,0,0,0-.117-.375.666.666,0,0,0-.352-.235,2.943,2.943,0,0,0-.633-.188,3.166,3.166,0,0,1-.563-.188,2.4,2.4,0,0,1-.493-.235.917.917,0,0,1-.328-.4,1.912,1.912,0,0,1-.094-.587" transform="translate(-28.701 -94.986)" fill="#fff"/>
          <path id="Path_4117" data-name="Path 4117" d="M54.8,128.886V124.1h3.074v.68H55.645v1.267H57.4v.657h-1.76v1.455h2.229v.68H54.8Z" transform="translate(-41.942 -95.216)" fill="#fff"/>
          <path id="Path_4118" data-name="Path 4118" d="M70.415,126.111a2.307,2.307,0,0,0,.188.939,1.832,1.832,0,0,0,.563.633,1.79,1.79,0,0,0,.892.211,2.019,2.019,0,0,0,.892-.164,2.346,2.346,0,0,0,.61-.422h.023l-.094.845a2.431,2.431,0,0,1-.657.305,3.286,3.286,0,0,1-.892.117,2.667,2.667,0,0,1-1.009-.188,2.008,2.008,0,0,1-.774-.54,2.53,2.53,0,0,1-.493-.8,2.677,2.677,0,0,1-.164-.962,2.506,2.506,0,0,1,.657-1.76,2.3,2.3,0,0,1,.774-.54,2.759,2.759,0,0,1,1.009-.188,3.172,3.172,0,0,1,.868.094,1.982,1.982,0,0,1,.634.305l.094.845h-.023a2.486,2.486,0,0,0-.633-.422,2.254,2.254,0,0,0-.845-.164,1.79,1.79,0,0,0-.892.211,1.492,1.492,0,0,0-.563.633,3.777,3.777,0,0,0-.164,1.009" transform="translate(-53.193 -94.833)" fill="#fff"/>
          <path id="Path_4119" data-name="Path 4119" d="M91.488,128.253a1.32,1.32,0,0,0,.939-.282,1.306,1.306,0,0,0,.305-.962V124.1h.7v2.956a1.8,1.8,0,0,1-.516,1.455,2.142,2.142,0,0,1-1.478.446,2.249,2.249,0,0,1-1.5-.446,1.809,1.809,0,0,1-.54-1.455V124.1h.845v2.909a1.347,1.347,0,0,0,.282.962,1.386,1.386,0,0,0,.962.282" transform="translate(-68.424 -95.216)" fill="#fff"/>
          <path id="Path_4120" data-name="Path 4120" d="M110.1,128.886V124.1h2.018a1.841,1.841,0,0,1,.821.188,1.217,1.217,0,0,1,.516.516,1.548,1.548,0,0,1,.188.751,1.31,1.31,0,0,1-.282.845,1.445,1.445,0,0,1-.727.493l1.22,1.994h-.962l-1.1-1.877h-.845v1.877Zm1.783-4.106h-.939V126.4h.939a1,1,0,0,0,.657-.188.987.987,0,0,0,0-1.22.848.848,0,0,0-.657-.211" transform="translate(-84.267 -95.216)" fill="#fff"/>
          <path id="Path_4121" data-name="Path 4121" d="M128.8,128.886V124.1h3.074v.68h-2.229v1.267h1.76v.657h-1.76v1.455h2.229v.68H128.8Z" transform="translate(-98.58 -95.216)" fill="#fff"/>
        </g>
      </g>
    </g>
  </g>
</svg>
