<?xml version="1.0" encoding="utf-8"?>
<!-- Generator: Adobe Illustrator 23.0.1, SVG Export Plug-In . SVG Version: 6.00 Build 0)  -->
<svg version="1.1" id="Layer_1" xmlns="http://www.w3.org/2000/svg" xmlns:xlink="http://www.w3.org/1999/xlink" x="0px" y="0px"
	 viewBox="0 0 48 48" style="enable-background:new 0 0 48 48;" xml:space="preserve">
<style type="text/css">
	.st0{fill:#0F2C52;}
</style>
<circle class="st0" cx="24" cy="1" r="1"/>
<circle class="st0" cx="24" cy="47" r="1"/>
<g transform="translate(-204 -655)">
	<path class="st0" d="M221.3,677.8c-0.7-1.1-1-2.5-0.9-3.8c-0.1-1.3,0.2-2.6,0.9-3.8c1.2-1.5,3.4-1.7,4.9-0.5
		c0.2,0.2,0.4,0.3,0.5,0.5c1.2,2.4,1.2,5.2,0,7.6c-1.2,1.5-3.4,1.7-4.9,0.5C221.6,678.2,221.5,678,221.3,677.8z M225.4,676.8
		c0.5-1.8,0.5-3.8,0-5.6c-0.4-0.8-1.3-1.1-2-0.8c-0.3,0.2-0.6,0.4-0.8,0.8c-0.5,1.8-0.5,3.8,0,5.6c0.4,0.8,1.3,1.1,2,0.8
		C225,677.4,225.2,677.1,225.4,676.8z"/>
	<path class="st0" d="M232.3,689.8c-0.7-1.1-1-2.5-0.9-3.8c-0.1-1.3,0.2-2.6,0.9-3.8c1.2-1.5,3.4-1.7,4.9-0.5
		c0.2,0.2,0.4,0.3,0.5,0.5c1.2,2.4,1.2,5.2,0,7.6c-1.2,1.5-3.4,1.7-4.9,0.5C232.6,690.2,232.5,690,232.3,689.8z M236.4,688.8
		c0.5-1.8,0.5-3.8,0-5.6c-0.4-0.8-1.3-1.1-2-0.8c-0.3,0.2-0.6,0.4-0.8,0.8c-0.5,1.8-0.5,3.8,0,5.6c0.4,0.8,1.3,1.1,2,0.8
		C236,689.4,236.2,689.1,236.4,688.8z"/>
	<path class="st0" d="M219.5,690.3c-0.2,0-0.4-0.1-0.5-0.2c-0.3-0.3-0.3-0.8,0-1.1l21-21c0.3-0.3,0.8-0.3,1.1,0
		c0.3,0.3,0.3,0.8,0,1.1c0,0,0,0,0,0l-21,21C219.9,690.2,219.7,690.3,219.5,690.3z"/>
</g>
<circle class="st0" cx="47" cy="24" r="1"/>
<circle class="st0" cx="1" cy="24" r="1"/>
<circle class="st0" cx="46.2" cy="30" r="1"/>
<circle class="st0" cx="1.8" cy="18" r="1"/>
<circle class="st0" cx="43.9" cy="35.5" r="1"/>
<circle class="st0" cx="4.1" cy="12.5" r="1"/>
<circle class="st0" cx="40.3" cy="40.3" r="1"/>
<circle class="st0" cx="7.7" cy="7.7" r="1"/>
<circle class="st0" cx="35.5" cy="43.9" r="1"/>
<circle class="st0" cx="12.5" cy="4.1" r="1"/>
<circle class="st0" cx="30" cy="46.2" r="1"/>
<circle class="st0" cx="18" cy="1.8" r="1"/>
<circle class="st0" cx="18" cy="46.2" r="1"/>
<circle class="st0" cx="30" cy="1.8" r="1"/>
<circle class="st0" cx="12.5" cy="43.9" r="1"/>
<circle class="st0" cx="35.5" cy="4.1" r="1"/>
<circle class="st0" cx="7.7" cy="40.3" r="1"/>
<circle class="st0" cx="40.3" cy="7.7" r="1"/>
<circle class="st0" cx="4.1" cy="35.5" r="1"/>
<circle class="st0" cx="43.9" cy="12.5" r="1"/>
<circle class="st0" cx="1.8" cy="30" r="1"/>
<circle class="st0" cx="46.2" cy="18" r="1"/>
</svg>
