<svg xmlns="http://www.w3.org/2000/svg" viewBox="0 0 55.05 54.85"><defs><style>.a{fill:#0f2c52;}</style></defs><g transform="translate(-0.25 -873.45)"><path class="a" d="M11.4,885.2H.8a.5.5,0,0,1,0-1h9.5L.5,874.4a.483.483,0,0,1,0-.7.483.483,0,0,1,.7,0l10.7,10.7c.1.1.2.4.1.5C11.8,885,11.6,885.2,11.4,885.2Z"/><path class="a" d="M11.4,885.2c-.1,0-.3-.1-.4-.1L.4,874.3a.483.483,0,0,1,0-.7.483.483,0,0,1,.7,0l9.8,9.8V874a.5.5,0,0,1,1,0v10.7a.55.55,0,0,1-.3.5C11.5,885.1,11.5,885.2,11.4,885.2Z"/><path class="a" d="M54.8,885.2H44.1a.55.55,0,0,1-.5-.3.44.44,0,0,1,.1-.5l10.7-10.7a.495.495,0,1,1,.7.7l-9.8,9.8h9.5a.472.472,0,0,1,.5.5A.536.536,0,0,1,54.8,885.2Z"/><path class="a" d="M44.1,885.2h-.2a.55.55,0,0,1-.3-.5V874a.5.5,0,0,1,1,0v9.5l9.8-9.8a.495.495,0,1,1,.7.7L44.4,885C44.3,885.1,44.2,885.2,44.1,885.2Z"/><path class="a" d="M.8,928.2a.6.6,0,0,1-.4-.1.483.483,0,0,1,0-.7l9.8-9.8H.8a.5.5,0,0,1,0-1H11.5a.55.55,0,0,1,.5.3.44.44,0,0,1-.1.5L1.1,928C1,928.1.9,928.2.8,928.2Z"/><path class="a" d="M11.4,928.2a.472.472,0,0,1-.5-.5v-9.5L1.1,928a.483.483,0,0,1-.7,0,.483.483,0,0,1,0-.7l10.7-10.7c.1-.1.4-.2.5-.1a.55.55,0,0,1,.3.5v10.7A.472.472,0,0,1,11.4,928.2Z"/><path class="a" d="M54.8,928.2a.6.6,0,0,1-.4-.1L43.7,917.4c-.1-.1-.2-.4-.1-.5a.55.55,0,0,1,.5-.3H54.8a.5.5,0,0,1,0,1H45.3l9.8,9.8a.483.483,0,0,1,0,.7C55,928.1,54.9,928.2,54.8,928.2Z"/><path class="a" d="M54.8,928.2a.6.6,0,0,1-.4-.1l-9.8-9.8v9.5a.5.5,0,0,1-1,0V917a.55.55,0,0,1,.3-.5.44.44,0,0,1,.5.1l10.7,10.7a.483.483,0,0,1,0,.7C55,928.1,54.9,928.2,54.8,928.2Z"/><path class="a" d="M27.5,901a.367.367,0,0,1-.3-.1c-4.7-1.9-4.9-4.8-4.8-5.9a5.2,5.2,0,0,1,4.4-4.3c2.6-.4,5,1,6.4,3.8a.738.738,0,0,1-1.3.7c-1.1-2.3-2.8-3.4-4.8-3a3.841,3.841,0,0,0-3.2,3c-.2,1.6,1.2,3.2,3.9,4.3a.731.731,0,0,1,.4,1A.752.752,0,0,1,27.5,901Z"/><path class="a" d="M27.6,912.1a.789.789,0,0,1-.8-.8V889.1a.789.789,0,0,1,.8-.8.736.736,0,0,1,.8.8v22.2A.789.789,0,0,1,27.6,912.1Z"/><path class="a" d="M27.3,909.9c-2.2,0-4.2-1.4-5.5-3.9a.738.738,0,0,1,1.3-.7c1.1,2.3,2.8,3.4,4.8,3a3.841,3.841,0,0,0,3.2-3c.2-1.6-1.2-3.2-3.9-4.3a.762.762,0,0,1,.6-1.4c4.7,1.9,4.9,4.8,4.8,5.9a5.2,5.2,0,0,1-4.4,4.3C27.9,909.8,27.6,909.9,27.3,909.9Z"/></g></svg>