<svg xmlns="http://www.w3.org/2000/svg" viewBox="0 0 56.123 56.018">
  <g id="Сгруппировать_5270" data-name="Сгруппировать 5270" transform="translate(-837.704 -688.114)">
    <g id="Сгруппировать_5265" data-name="Сгруппировать 5265" transform="translate(50)">
      <g id="Сгруппировать_5251" data-name="Сгруппировать 5251" transform="translate(788.693 689)">
        <path id="Контур_4588" data-name="Контур 4588" d="M21433,7014.516l11.391,11.39a.775.775,0,0,1,0,1.069l-7.2,7.2a.772.772,0,0,1-1.07,0l-11.35-11.391-6.127,6.086a.337.337,0,0,1-.246.164.711.711,0,0,1-.945-.411l-12.172-32.607a1.008,1.008,0,0,1,0-.494.777.777,0,0,1,.986-.452l32.525,12.131a2.425,2.425,0,0,1,.33.164.771.771,0,0,1,0,1.069Z" transform="translate(-21389.469 -6979.254)" fill="#4c4c4c"/>
      </g>
      <rect id="Прямоугольник_20134" data-name="Прямоугольник 20134" width="11.993" height="1.5" rx="0.75" transform="translate(810.316 699.671) rotate(-74)" fill="#ff8055"/>
      <rect id="Прямоугольник_20135" data-name="Прямоугольник 20135" width="11.993" height="1.5" rx="0.75" transform="translate(805.413 700.113) rotate(-104)" fill="#ff8055"/>
      <rect id="Прямоугольник_20136" data-name="Прямоугольник 20136" width="11.993" height="1.5" rx="0.75" transform="translate(800.399 702.884) rotate(-135)" fill="#ff8055"/>
      <rect id="Прямоугольник_20137" data-name="Прямоугольник 20137" width="11.993" height="1.5" rx="0.75" transform="matrix(0.966, 0.259, -0.259, 0.966, 788.092, 702.837)" fill="#ff8055"/>
      <rect id="Прямоугольник_20138" data-name="Прямоугольник 20138" width="11.993" height="1.5" rx="0.75" transform="matrix(0.966, -0.259, 0.259, 0.966, 788.704, 713.941)" fill="#ff8055"/>
    </g>
  </g>
</svg>
