<svg xmlns="http://www.w3.org/2000/svg" viewBox="0 0 69.938 57">
  <g id="Сгруппировать_5281" data-name="Сгруппировать 5281" transform="translate(-938 -865)">
    <rect id="icon_mask" width="56" height="56" transform="translate(938.227 866)" fill="none"/>
    <circle id="Эллипс_155" data-name="Эллипс 155" cx="2" cy="2" r="2" transform="translate(964 865)" fill="#4c4c4c"/>
    <circle id="Эллипс_151" data-name="Эллипс 151" cx="2" cy="2" r="2" transform="translate(990 892)" fill="#4c4c4c"/>
    <circle id="Эллипс_163" data-name="Эллипс 163" cx="2" cy="2" r="2" transform="translate(938 892)" fill="#4c4c4c"/>
    <circle id="Эллипс_164" data-name="Эллипс 164" cx="2" cy="2" r="2" transform="translate(964 917)" fill="#4c4c4c"/>
    <circle id="Эллипс_157" data-name="Эллипс 157" cx="2" cy="2" r="2" transform="translate(982 910)" fill="#4c4c4c"/>
    <circle id="Эллипс_159" data-name="Эллипс 159" cx="2" cy="2" r="2" transform="translate(946 910)" fill="#4c4c4c"/>
    <circle id="Эллипс_152" data-name="Эллипс 152" cx="2" cy="2" r="2" transform="translate(983 873)" fill="#4c4c4c"/>
    <circle id="Эллипс_160" data-name="Эллипс 160" cx="2" cy="2" r="2" transform="translate(945 873)" fill="#4c4c4c"/>
    <circle id="Эллипс_156" data-name="Эллипс 156" cx="2" cy="2" r="2" transform="translate(988 902)" fill="#4c4c4c"/>
    <circle id="Эллипс_165" data-name="Эллипс 165" cx="2" cy="2" r="2" transform="translate(940 902)" fill="#4c4c4c"/>
    <circle id="Эллипс_153" data-name="Эллипс 153" cx="2" cy="2" r="2" transform="translate(988 882)" fill="#4c4c4c"/>
    <circle id="Эллипс_166" data-name="Эллипс 166" cx="2" cy="2" r="2" transform="translate(940 882)" fill="#4c4c4c"/>
    <circle id="Эллипс_161" data-name="Эллипс 161" cx="2" cy="2" r="2" transform="translate(974 915)" fill="#4c4c4c"/>
    <circle id="Эллипс_162" data-name="Эллипс 162" cx="2" cy="2" r="2" transform="translate(954 915)" fill="#4c4c4c"/>
    <circle id="Эллипс_154" data-name="Эллипс 154" cx="2" cy="2" r="2" transform="translate(975 867)" fill="#4c4c4c"/>
    <circle id="Эллипс_158" data-name="Эллипс 158" cx="2" cy="2" r="2" transform="translate(953 867)" fill="#4c4c4c"/>
    <path id="Контур_5160" data-name="Контур 5160" d="M48524.191,7369.137a4.122,4.122,0,0,1,0-5.8l.082-.041a4.144,4.144,0,0,1,2.8-1.151,4.044,4.044,0,0,1,2.879,1.192l12.168,12.171,29.32-29.318a4.119,4.119,0,0,1,2.879-1.192,4.044,4.044,0,0,1,2.879,1.192l.039.082a3.957,3.957,0,0,1,1.152,2.8,3.89,3.89,0,0,1-1.191,2.879l-32.2,32.2a3.89,3.89,0,0,1-2.883,1.192,4.01,4.01,0,0,1-2.875-1.192Zm.328-2.919a2.567,2.567,0,0,0,.742,1.85l15.051,15.05a2.543,2.543,0,0,0,1.8.74,2.73,2.73,0,0,0,1.855-.74l32.2-32.2a2.649,2.649,0,0,0,.738-1.85,2.683,2.683,0,0,0-.7-1.768l-.043-.041a2.719,2.719,0,0,0-1.852-.74,2.543,2.543,0,0,0-1.809.74l-29.852,29.853a.772.772,0,0,1-1.07,0l-12.664-12.706a2.633,2.633,0,0,0-3.617-.042l-.043.042A2.542,2.542,0,0,0,48524.52,7366.218Z" transform="translate(-47570.449 -6478.868)" fill="#fff"/>
    <path id="Контур_5161" data-name="Контур 5161" d="M48524.52,7366.218a2.567,2.567,0,0,0,.742,1.85l15.051,15.05a2.543,2.543,0,0,0,1.8.74,2.73,2.73,0,0,0,1.855-.74l32.2-32.2a2.649,2.649,0,0,0,.738-1.85,2.683,2.683,0,0,0-.7-1.768l-.043-.041a2.719,2.719,0,0,0-1.852-.74,2.543,2.543,0,0,0-1.809.74l-29.852,29.853a.772.772,0,0,1-1.07,0l-12.664-12.706a2.633,2.633,0,0,0-3.617-.042l-.043.042A2.542,2.542,0,0,0,48524.52,7366.218Z" transform="translate(-47570.449 -6478.868)" fill="#ff8055"/>
  </g>
</svg>
