<svg xmlns="http://www.w3.org/2000/svg" viewBox="0 0 57.37 57.114">
  <g id="Сгруппировать_5369" data-name="Сгруппировать 5369" transform="translate(-949.63 -690.886)">
    <circle id="Эллипс_134" data-name="Эллипс 134" cx="17" cy="17" r="17" transform="translate(961 702)" fill="#ff8055"/>
    <rect id="Прямоугольник_20141" data-name="Прямоугольник 20141" width="8.168" height="1.817" rx="0.908" transform="translate(978.237 690.886) rotate(90)" fill="#4c4c4c"/>
    <rect id="Прямоугольник_20142" data-name="Прямоугольник 20142" width="8.168" height="1.817" rx="0.908" transform="translate(1005.936 719.493) rotate(180)" fill="#4c4c4c"/>
    <rect id="Прямоугольник_20143" data-name="Прямоугольник 20143" width="8.168" height="1.817" rx="0.908" transform="translate(957.798 719.493) rotate(180)" fill="#4c4c4c"/>
    <rect id="Прямоугольник_20144" data-name="Прямоугольник 20144" width="8.168" height="1.817" rx="0.908" transform="translate(962.317 706.674) rotate(-135)" fill="#4c4c4c"/>
    <rect id="Прямоугольник_20147" data-name="Прямоугольник 20147" width="8.168" height="1.817" rx="0.908" transform="translate(963.602 732.688) rotate(135)" fill="#4c4c4c"/>
    <rect id="Прямоугольник_20145" data-name="Прямоугольник 20145" width="8.168" height="1.816" rx="0.908" transform="translate(991.965 705.39) rotate(-45)" fill="#4c4c4c"/>
    <rect id="Прямоугольник_20146" data-name="Прямоугольник 20146" width="8.168" height="1.816" rx="0.908" transform="translate(993.249 731.403) rotate(45)" fill="#4c4c4c"/>
    <rect id="Прямоугольник_20139" data-name="Прямоугольник 20139" width="14" height="10" rx="2" transform="translate(971 735)" fill="#4c4c4c"/>
    <rect id="Прямоугольник_20140" data-name="Прямоугольник 20140" width="11" height="6" rx="2" transform="translate(972 742)" fill="#4c4c4c"/>
    <rect id="Прямоугольник_20179" data-name="Прямоугольник 20179" width="56" height="56" transform="translate(951 692)" fill="#fff" opacity="0"/>
  </g>
</svg>
